<svg width="574" height="850" viewBox="0 0 574 850" fill="none" xmlns="http://www.w3.org/2000/svg"><mask id="mask0" maskUnits="userSpaceOnUse" x="0" y="0" width="574" height="850"><path fill="#C4C4C4" d="M0 0h574v850H0z"/></mask><g mask="url(#mask0)"><path fill-rule="evenodd" clip-rule="evenodd" d="M310 533c134.757 0 244-109.243 244-244S444.757 45 310 45 66 154.243 66 289s109.243 244 244 244z" fill="url(#paint0_radial)"/><path fill-rule="evenodd" clip-rule="evenodd" d="M169 623c134.757 0 244-109.243 244-244S303.757 135 169 135-75 244.243-75 379 34.243 623 169 623z" fill="url(#paint1_radial)"/><path d="M-1 586v-80l70.5 80H-1z" fill="#F9F1FE"/><path d="M69.5 506v80L-1 506h70.5z" fill="#FDFBFF"/><path d="M70 676.5v-90l79.5 90H70z" fill="#F9F1FE"/><path d="M149.5 586.5v90l-79.5-90h79.5z" fill="#FDFBFF"/><path d="M149 766.5v-90l79.5 90H149z" fill="#F9F1FE"/><path d="M228.5 676.5v90l-79.5-90h79.5z" fill="#FDFBFF"/><path d="M228 766.5v-90l79.5 90H228z" fill="#FAF7FF"/><path d="M307.5 766.5v90l-79.5-90h79.5z" fill="#F9F1FE"/><path d="M386.5 766.5v90l-79.5-90h79.5zm157 0v90l-79.5-90h79.5z" fill="#F4F0FE"/><path d="M386 766.5v90l79.5-90H386zm-313.5 90v-90l-79.5 90h79.5zm77.5 0v-90l79.5 90H150z" fill="#F4F0FE"/><path d="M72 856.5v-90l79.5 90H72z" fill="#F4F0FE"/><path d="M227.5 586.5v90l-79.5-90h79.5z" fill="#FAF7FF"/><path d="M307.5 676.5v90l-79.5-90h79.5zM70 766.5v-90l79.5 90H70z" fill="#FDFBFF"/><path d="M149.5 676.5v90l-79.5-90h79.5z" fill="#FAF7FF"/><path d="M-10 677v-90l79.5 90H-10z" fill="#F9F1FE"/><path d="M69.5 587v90L-10 587h79.5z" fill="#FDFBFF"/><path d="M-7 767v-90l79.5 90H-7z" fill="#F9F1FE"/><path d="M71.5 677v90L-8 677h79.5z" fill="#FDFBFF"/></g><defs><radialGradient id="paint0_radial" cx="0" cy="0" r="1" gradientUnits="userSpaceOnUse" gradientTransform="rotate(121.799 57.65 218.63) scale(260.158)"><stop stop-color="#FFFB98" stop-opacity=".31"/><stop offset="1" stop-color="#fff" stop-opacity="0"/></radialGradient><radialGradient id="paint1_radial" cx="0" cy="0" r="1" gradientUnits="userSpaceOnUse" gradientTransform="rotate(121.799 -37.897 224.39) scale(260.158)"><stop stop-color="#C598FF" stop-opacity=".22"/><stop offset="1" stop-color="#fff" stop-opacity="0"/></radialGradient></defs></svg>