<svg width="611" height="785" viewBox="0 0 611 785" fill="none" xmlns="http://www.w3.org/2000/svg"><g clip-path="url(#clip0)"><path d="M603.786 270.51l.147 80-70.647-79.871 70.5-.129z" fill="#F9F1FE"/><path d="M533.433 350.639l-.147-80 70.647 79.871-70.5.129z" fill="#FDFBFF"/><path d="M532.621 180.14l.165 90-79.665-89.854 79.5-.146z" fill="#F9F1FE"/><path d="M453.286 270.286l-.165-90 79.665 89.854-79.5.146z" fill="#FDFBFF"/><path d="M453.456 90.285l.165 90-79.665-89.854 79.5-.146z" fill="#F9F1FE"/><path d="M374.121 180.431l-.165-90 79.665 89.854-79.5.146z" fill="#FDFBFF"/><path d="M374.456 90.43l.165 90-79.665-89.854 79.5-.146z" fill="#FAF7FF"/><path d="M294.956 90.576l-.165-90 79.665 89.854-79.5.146z" fill="#F9F1FE"/><path d="M215.956 90.72l-.165-90 79.665 89.855-79.5.145zM529.791.145l.165 90L609.291-.001l-79.5.146zm-77.5.142l.165 90L372.791.433l79.5-.146z" fill="#F4F0FE"/><path d="M530.291.144l.165 90L450.791.29l79.5-.146z" fill="#F4F0FE"/><path d="M375.286 270.429l-.165-90 79.665 89.854-79.5.146z" fill="#FAF7FF"/><path d="M2.957 656.136l-.165-90 79.665 89.854-79.5.146zm316-91l-.165-90 79.664 89.854-79.499.146z" fill="#F3E3FD"/><path d="M318.957 654.136l-.165-90 79.664 89.854-79.499.146z" fill="#F3E3FD"/><path d="M238.957 654.136l-.165-90 79.664 89.854-79.499.146zm160 0l-.165-90 79.664 89.854-79.499.146z" fill="#EAD4F8"/><path d="M398.291 475.136l.165-90-79.664 89.854 79.499.146z" fill="#F3E3FD"/><path d="M397.957 384.99l-.165 90 79.664-89.854-79.499-.146z" fill="#FBF8FF"/><path d="M477.291 295.99l.165 90-79.664-89.854 79.499-.146zm.666 179.146l-.165-90 79.664 89.854-79.499.146z" fill="#F3E3FD"/><path d="M550.957 474.99l-.165 90 79.664-89.854-79.499-.146z" fill="#F3E3FD"/><path d="M550.957 563.99l-.165 90 79.664-89.854-79.499-.146zm-79.666 182.146l.165-90-79.664 89.854 79.499.146z" fill="#E7E3FC"/><path d="M471.957 743.99l-.165 90 79.664-89.854-79.499-.146z" fill="#F3E3FD"/><path d="M238.957 475.136l-.165-90 79.664 89.854-79.499.146z" fill="#EAD4F8"/><path d="M319.291 565.136l.165-90-79.664 89.854 79.499.146z" fill="#F7EFFE"/><path d="M82.291 565.99l.166 90-79.665-89.854 79.5-.146z" fill="#FBF8FF"/><path d="M2.957 475.136l-.165-90 79.665 89.854-79.5.146z" fill="#F3E3FD"/><path d="M2.957 474.99l-.165 90 79.664-89.854-79.5-.146z" fill="#FBF8FF"/><path d="M158.957 746.136l-.165-90 79.664 89.854-79.499.146zm80 0l-.165-90 79.664 89.854-79.499.146z" fill="#F3E3FD"/><path d="M82.291 655.99l.166 90-79.665-89.854 79.5-.146z" fill="#F7EFFE"/><path d="M2.957 746.136l-.165-90 79.665 89.854-79.5.146z" fill="#FBF8FF"/><path d="M295.121 180.576l-.165-90 79.665 89.854-79.5.146z" fill="#FDFBFF"/><path d="M216.121 113.43l-.165 90 79.665-89.854-79.5-.146zM82.957 203.99l-.165 90 79.664-89.854-79.5-.146z" fill="#EEE1FD"/><path d="M162.291 294.136l.165-90-79.664 89.854 79.499.146z" fill="#FBF8FF"/><path d="M532.456 90.14l.165 90-79.665-89.854 79.5-.146z" fill="#FDFBFF"/><path d="M453.121 180.286l-.165-90 79.665 89.854-79.5.146z" fill="#FAF7FF"/><path d="M614.62 179.99l.165 90-79.664-89.854 79.499-.146z" fill="#F9F1FE"/><path d="M535.286 270.136l-.165-90 79.664 89.854-79.499.146z" fill="#FDFBFF"/><path d="M614.456 89.99l.164 90-79.664-89.854 79.5-.146z" fill="#F9F1FE"/><path d="M535.121 180.136l-.165-90 79.664 89.854-79.499.146z" fill="#FDFBFF"/></g><path fill-rule="evenodd" clip-rule="evenodd" d="M376.792 676.99c112.666 0 204-91.334 204-204s-91.334-204-204-204c-112.667 0-204 91.334-204 204s91.333 204 204 204z" fill="url(#paint0_linear)" fill-opacity=".6"/><defs><linearGradient id="paint0_linear" x1="461.175" y1="284.649" x2="231.947" y2="654.372" gradientUnits="userSpaceOnUse"><stop offset=".053" stop-color="#4158D0"/><stop offset=".166" stop-color="#8E53C7"/><stop offset=".531" stop-color="#C850C0"/><stop offset="1" stop-color="#FEBD49"/></linearGradient><clipPath id="clip0"><path fill="#fff" transform="rotate(179.895 304.83 392.065)" d="M0 0h608.942v783.572H0z"/></clipPath></defs></svg>