<svg width="32" height="32" viewBox="0 0 32 32" fill="none" xmlns="http://www.w3.org/2000/svg"><path d="M16 32c8.837 0 16-7.163 16-16S24.837 0 16 0 0 7.163 0 16s7.163 16 16 16z" fill="#15CD3D"/><path d="M23.343 19.076l-.012.1c-.402-.2-2.356-1.156-2.72-1.288-.818-.303-.587-.048-2.156 1.75-.234.26-.466.28-.862.1-.4-.2-1.684-.62-3.204-1.98-1.184-1.06-1.978-2.36-2.213-2.76-.39-.675.427-.771 1.17-2.18.134-.28.066-.5-.033-.698-.1-.2-.896-2.16-1.229-2.941-.32-.779-.65-.68-.896-.68-.768-.067-1.33-.056-1.824.458-2.152 2.366-1.61 4.806.232 7.4 3.619 4.736 5.547 5.608 9.072 6.819.952.303 1.82.26 2.507.161.765-.121 2.356-.961 2.688-1.901.34-.94.34-1.72.24-1.9-.099-.18-.36-.28-.76-.46z" fill="#fff"/></svg>